<svg id="e278e01e-6b7a-4412-a6da-d79f39ffdf31" data-name="Layer 1" xmlns="http://www.w3.org/2000/svg" width="865.76" height="682.89" viewBox="0 0 865.76 682.89"><g id="f0d4adc8-294e-4d4c-91b9-2fd1525dd903" data-name="freesvgillustration--background-complete--inject-1"><rect x="721.67" y="614.54" width="57.35" height="0.43" fill="#ebebeb"/><rect x="558.47" y="619.25" width="15.05" height="0.43" fill="#ebebeb"/><rect x="686.71" y="598.47" width="33.23" height="0.43" fill="#ebebeb"/><rect x="90.84" y="601.38" width="74.78" height="0.43" fill="#ebebeb"/><rect x="181.05" y="601.38" width="10.96" height="0.43" fill="#ebebeb"/><rect x="227.64" y="608.68" width="162.21" height="0.43" fill="#ebebeb"/><path d="M410.37,509.45H76a9.89,9.89,0,0,1-9.87-9.89v-470A9.89,9.89,0,0,1,76,19.77H410.37a9.89,9.89,0,0,1,9.89,9.89h0v469.9A9.89,9.89,0,0,1,410.37,509.45ZM76,20.12a9.46,9.46,0,0,0-9.44,9.45v470A9.46,9.46,0,0,0,76,509H410.37a9.48,9.48,0,0,0,9.46-9.46v-470a9.48,9.48,0,0,0-9.46-9.45Z" fill="#ebebeb"/><path d="M784.92,509.45H450.56a9.91,9.91,0,0,1-9.89-9.89v-470a9.91,9.91,0,0,1,9.89-9.8H784.92a9.89,9.89,0,0,1,9.85,9.8v470A9.88,9.88,0,0,1,784.92,509.45ZM450.56,20.12a9.47,9.47,0,0,0-9.45,9.45v470a9.47,9.47,0,0,0,9.45,9.46H784.92a9.47,9.47,0,0,0,9.45-9.46v-470a9.47,9.47,0,0,0-9.45-9.45Z" fill="#ebebeb"/><rect y="586.68" width="865.76" height="0.43" fill="#ebebeb"/><rect x="247.73" y="59.08" width="149.57" height="12.66" fill="#fafafa"/><rect x="254.66" y="478.37" width="149.57" height="12.66" fill="#fafafa"/><path d="M242.79,71.72V374a84.33,84.33,0,0,1,9.7-5.51l2.13-1v1.9a.33.33,0,0,0,0,.14,1.44,1.44,0,0,0,.12.71,3.71,3.71,0,0,1,.18.73V71.72Zm-.1-25V501.81H404.83V46.7ZM392.47,59.06V489.47H255V59.06ZM242.79,71.72V374a84.33,84.33,0,0,1,9.7-5.51l2.13-1v1.9a.33.33,0,0,0,0,.14,1.44,1.44,0,0,0,.12.71,3.71,3.71,0,0,1,.18.73V71.72Z" fill="#f0f0f0"/><rect x="99.41" y="59.08" width="149.57" height="12.66" fill="#fafafa"/><rect x="94.21" y="478.37" width="149.57" height="12.66" fill="#fafafa"/><path d="M93,46.7V501.81H255.16V46.7Zm14.63,444.41V60.71L242.71,59h.1V489.47h-.1l-52.26.64H189l-75.62.92Z" fill="#f0f0f0"/><rect x="513.07" y="357.42" width="172.48" height="229.69" fill="#ebebeb"/><polygon points="717.68 317.06 717.68 273.98 668.01 143.32 668.01 47.27 529.55 47.27 529.55 143.32 479.88 273.98 479.88 317.06 717.68 317.06" fill="#f0f0f0"/><rect x="523.04" y="170.92" width="37.11" height="29.83" rx="8.97" fill="#f5f5f5"/><rect x="541.59" y="205.6" width="45.18" height="29.83" rx="8.97" fill="#ebebeb"/><rect x="564.17" y="166.88" width="37.11" height="34.68" rx="8.97" fill="#fafafa"/><rect x="676.13" y="277.34" width="37.11" height="29.83" rx="8.97" fill="#ebebeb"/><rect x="649.51" y="242.66" width="45.18" height="29.83" rx="8.97" fill="#fafafa"/><rect x="635" y="276.51" width="37.11" height="34.68" rx="8.97" fill="#f0f0f0"/><rect x="574.76" y="116.34" width="37.11" height="29.83" rx="8.97" fill="#f0f0f0"/><rect x="548.13" y="81.66" width="45.18" height="29.83" rx="8.97" fill="#f5f5f5"/><rect x="533.62" y="115.51" width="37.11" height="34.68" rx="8.97" fill="#f0f0f0"/><rect x="647.44" y="191.84" width="37.11" height="29.83" rx="8.97" fill="#ebebeb"/><rect x="620.82" y="157.15" width="45.18" height="29.83" rx="8.97" fill="#fafafa"/><rect x="606.31" y="191.02" width="37.11" height="34.68" rx="8.97" fill="#f0f0f0"/><rect x="554.19" y="247.09" width="37.11" height="29.83" rx="8.97" fill="#f0f0f0"/><rect x="527.56" y="281.77" width="45.18" height="29.83" rx="8.97" fill="#ebebeb"/><rect x="485.92" y="281.77" width="37.11" height="29.83" rx="8.97" fill="#fafafa"/><rect x="513.05" y="243.04" width="37.11" height="34.68" rx="8.97" fill="#fafafa"/><rect x="438.75" y="342.58" width="78.23" height="243.26" fill="#fafafa"/><rect x="438.75" y="521.33" width="37.11" height="29.83" rx="8.97" fill="#ebebeb"/><rect x="457.3" y="556.01" width="45.18" height="29.83" rx="8.97" fill="#f0f0f0"/><rect x="479.88" y="517.29" width="37.11" height="34.68" rx="8.97" fill="#ebebeb"/><rect x="438.75" y="447.18" width="37.11" height="29.83" rx="8.97" fill="#f0f0f0"/><rect x="457.3" y="481.87" width="45.18" height="29.83" rx="8.97" fill="#f0f0f0"/><rect x="479.88" y="443.15" width="37.11" height="34.68" rx="8.97" fill="#f0f0f0"/><rect x="479.89" y="373.06" width="37.11" height="29.83" rx="8.97" fill="#f0f0f0"/><rect x="453.26" y="407.74" width="45.18" height="29.83" rx="8.97" fill="#ebebeb"/><rect x="438.73" y="369.01" width="37.11" height="34.68" rx="8.97" fill="#f0f0f0"/><rect x="680.58" y="342.6" width="78.23" height="243.26" fill="#fafafa"/><rect x="721.7" y="403.08" width="37.11" height="29.83" rx="8.97" fill="#f0f0f0"/><rect x="695.09" y="368.4" width="45.18" height="29.83" rx="8.97" fill="#f0f0f0"/><rect x="680.56" y="402.29" width="37.11" height="34.68" rx="8.97" fill="#ebebeb"/><rect x="721.7" y="477.24" width="37.11" height="29.83" rx="8.97" fill="#ebebeb"/><rect x="695.09" y="442.56" width="45.18" height="29.83" rx="8.97" fill="#ebebeb"/><rect x="680.56" y="476.43" width="37.11" height="34.68" rx="8.97" fill="#f0f0f0"/><rect x="680.58" y="551.37" width="37.11" height="29.83" rx="8.97" fill="#ebebeb"/><rect x="699.12" y="516.69" width="45.18" height="29.83" rx="8.97" fill="#ebebeb"/><rect x="721.7" y="550.57" width="37.11" height="34.68" rx="8.97" fill="#f0f0f0"/><polygon points="762.77 364.05 434.79 364.05 433.16 336.02 764.38 336.02 762.77 364.05" fill="#f5f5f5"/><polygon points="766.01 340.97 431.55 340.97 428.33 326.95 769.23 326.95 766.01 340.97" fill="#ebebeb"/><rect x="425.11" y="317.06" width="347.36" height="14.01" fill="#e0e0e0"/></g><g id="a08b003d-1d4c-40b9-a3b6-c034387ba6aa" data-name="freesvgillustration--Shadow--inject-1"><ellipse id="b1daa820-0a4f-459f-a1a9-32a40116251d" data-name="freesvgillustration--path--inject-1" cx="433.97" cy="643.52" rx="335.73" ry="19.6" fill="#f5f5f5"/></g><polygon points="674.94 603.67 672.15 633.72 655.67 633.84 657.04 602.71 674.94 603.67" fill="#f9b499"/><path d="M662.13,308.43S653.87,429.86,653,495.3c-.8,61.78-.51,114.89-.51,114.89l24.25.31s2.13-21,9.71-64.69c2-11.33.23-38,1.94-52.71,8.47-73.19,21.56-107.79,21.56-107.79C719.72,353,716,310.13,716,310.13Z" fill="#6c757d"/><path d="M656.07,631.57l16.64.21a1.29,1.29,0,0,1,1.23,1.12L676,647.12a2.48,2.48,0,0,1-1.86,2.79h-.46c-6-.19-11.31-.61-18.79-.7-8.81-.1-6.65,1-17,1-6.25,0-6.93-7.44-4.24-7.77,12.22-1.44,13.74-5.2,18.71-9.75A5.57,5.57,0,0,1,656.07,631.57Z" fill="#0071f2"/><path d="M687.27,360.4,711,368.12c-.9,9.69-18.08,84.25-20.12,96.12C679.7,442.31,687.27,360.4,687.27,360.4Z" opacity="0.5" style="isolation:isolate"/><polygon points="728.93 602.05 729.64 632.23 713.28 634.24 711.04 603.16 728.93 602.05" fill="#f9b499"/><path d="M682.61,311.7l10,179c6.32,61.47,14.82,120.44,14.82,120.44L731,608.61s-.29-21.06,2.2-65.37c.66-11.46-3.29-51.44-3.29-51.44,0-73.69,7.06-105.74,7.06-105.74,6-33.23-1.38-73.61-1.38-73.61Z" fill="#6c757d"/><path d="M713.4,631.93,730,630.2a1.28,1.28,0,0,1,1.35,1L735,645a2.5,2.5,0,0,1-1.53,3,2.56,2.56,0,0,1-.46.11c-6,.5-11.31.71-18.74,1.47-8.78.92-6.49,1.73-16.8,3-6.21.73-7.72-6.59-5.1-7.23,12-2.84,13-6.81,17.47-11.83A5.58,5.58,0,0,1,713.4,631.93Z" fill="#0071f2"/><path d="M746.16,214.29a4.39,4.39,0,0,1,1.47,4.07c-1.73,10-8.93,51.94-10.06,67.53-.85,11.63-.36,35.17-.36,35.17s-56.43,4.39-76.41-2.2L661,219.4a4.11,4.11,0,0,1,3.12-4C677.45,212.12,730.06,200.32,746.16,214.29Z" fill="#0071f2"/><path d="M670,217.32c-4.2-2.55-10-.94-13.4,2.61s-4.88,8.52-5.61,13.37c-.62,4.12-2.75,12.94-4.48,21.35-2.13,10.2,4.64,23.88,14.94,25.4Z" fill="#0071f2"/><path d="M741.1,258.25a38.58,38.58,0,0,1-8-31.37h4.48l7.64,5.78h0C743.91,240.19,742.46,249.37,741.1,258.25Z" opacity="0.2" style="isolation:isolate"/><path d="M691.86,224.76a3,3,0,0,0,6-.22h0a3,3,0,1,0-6,.22Z" opacity="0.2"/><path d="M688.64,250.22a3,3,0,1,0,2.86-3.1,3,3,0,0,0-2.86,3.1Z" opacity="0.2"/><path d="M686.77,278a3,3,0,1,0,2.87-3.08h0a3,3,0,0,0-2.86,3.06Z" opacity="0.2"/><path d="M688,305.16a3,3,0,1,0,2.87-3.08h0A3,3,0,0,0,688,305.16Z" opacity="0.2"/><path d="M710.2,203.85,706.35,209l-7.46,4.9-4.47,1.13L687.5,213l-3-.31-.62-.49c6.92-5,6.47-13.26,3.91-20.36l19.53-20.48C706.47,180.21,706.27,194.65,710.2,203.85Z" fill="#f9b499"/><path d="M689.42,199.78a28.13,28.13,0,0,0-1.73-7.95l12-12.55,7.27-3.36h0c-.15,3.06-.21,6.47-.08,10A25.73,25.73,0,0,1,689.42,199.78Z" fill="#f4a48e" style="isolation:isolate"/><path d="M684.5,165.81c8-7.95,10.22-20.78,8.8-23.15s-17.32-3.21-19-1.63c-8.78,7.6,1,19.91,1,19.91l-2.35,5.45Z" fill="#6c757d"/><path d="M714.09,174.12a10.5,10.5,0,0,1-2.32,8.66,4.44,4.44,0,0,1-2.08,1.48,3.29,3.29,0,0,1-3.65-1.73,4.49,4.49,0,0,1,.09-4.17,6.8,6.8,0,0,1,3.13-2.87,15.1,15.1,0,0,1,4.16-1.23H713Z" fill="#6c757d"/><path d="M710,158.91c-.36,13.58.09,21.55-6.52,28.73-9.94,10.81-26.89,5.2-30.57-8.26-3.32-12.12-2.13-32.27,11-38.09A18.52,18.52,0,0,1,710,158.93Z" fill="#f9b499"/><path d="M727.13,161.91a5.8,5.8,0,0,1,2.94,7.12,13.26,13.26,0,0,1-6.4,6.25c-3,1.64-7.29,2.82-10.53,1.42a6.3,6.3,0,0,1-3.65-5.47c-.68-5.79,2.28-15.17,9.85-18.67C728.6,148.28,736.69,158.71,727.13,161.91Z" fill="#6c757d"/><path d="M713,167.88c23.1-16.27-2.72-26.51-8.78-21.4-7.36,6.44-9,13.34.9,12.68,6.76-.44-.62,10.09-.62,10.09Z" fill="#6c757d"/><path d="M717.07,171.35a12.94,12.94,0,0,1-7.84,6c-4.4,1.11-6.5-2.82-5.2-6.92,1.16-3.67,4.87-8.66,9.23-8S719.15,167.68,717.07,171.35Z" fill="#f9b499"/><path d="M721.78,209.11c-.36-3.11-6.73-8.43-10.39-6.92s-9.7,10.56-15.58,10.92-7.24-10.39-10.39-9.37a14.62,14.62,0,0,0-7.62,6.64c-1.07,2.7-1,12.83,1.73,11.51,0,0,3.81-7.24,6.22-8.09S692.67,216,695,216s7.74-3.17,10.1-2.13,4.5,7.67,7.1,7.55C716.1,221.16,722.23,212.9,721.78,209.11Z" fill="#0071f2"/><path d="M721.78,209.11c-.36-3.11-6.73-8.43-10.39-6.92s-9.7,10.56-15.58,10.92-7.24-10.39-10.39-9.37a14.62,14.62,0,0,0-7.62,6.64c-1.07,2.7-1,12.83,1.73,11.51,0,0,3.81-7.24,6.22-8.09S692.67,216,695,216s7.74-3.17,10.1-2.13,4.5,7.67,7.1,7.55C716.1,221.16,722.23,212.9,721.78,209.11Z" fill="#fff" opacity="0.4" style="isolation:isolate"/><path d="M657,247.53c1.87-4,3.69-8.15,5.46-12.34,3.46-8.38,6.92-17,10.21-25.56l9.14,2.49c-1.73,9.37-3.84,18.51-6.44,27.62-1.3,4.59-2.73,9.2-4.41,13.7Z" fill="#ebb376"/><path d="M677.51,216.25c6.25.2,8.9-11.24,8.9-11.24l-14.19-5.34-.29,12.42Z" fill="#f9b499"/><path d="M672.22,199.67,686.39,205l3.06-7.44a2.57,2.57,0,0,0-1.07-3.21l-7.48-4.4a2.58,2.58,0,0,0-3.46.92Z" fill="#f9b499"/><path d="M663.74,278.22c11.67-19.19,12.74-35.5,21.44-54.22a28.74,28.74,0,0,0-16.8-11.51A167.22,167.22,0,0,1,651.79,247a54.46,54.46,0,0,0-7,15.58,16,16,0,0,0-.66,4.11c0,4.81,0,10,3.47,13.66a10.39,10.39,0,0,0,14.69-.19A10.57,10.57,0,0,0,663.74,278.22Z" fill="#0071f2"/><path d="M663.74,278.22c11.67-19.19,12.74-35.5,21.44-54.22a28.74,28.74,0,0,0-16.8-11.51A167.22,167.22,0,0,1,651.79,247a54.46,54.46,0,0,0-7,15.58,16,16,0,0,0-.66,4.11c0,4.81,0,10,3.47,13.66a10.39,10.39,0,0,0,14.69-.19A10.57,10.57,0,0,0,663.74,278.22Z" fill="#fff" opacity="0.1" style="isolation:isolate"/><polygon points="687.84 217.67 686.77 225.2 666.35 214.95 669.28 207.92 687.84 217.67" fill="#0071f2"/><polygon points="687.84 217.67 686.77 225.2 666.35 214.95 669.28 207.92 687.84 217.67" fill="#fff" opacity="0.5" style="isolation:isolate"/><path d="M671.93,271.33l3.1-.4a3.31,3.31,0,0,0,2.84-3.72h0l-3.71-28.1a3.31,3.31,0,0,0-3.7-2.86h0l-3.1.42Z" fill="#6c757d"/><rect x="656.37" y="237.21" width="18.23" height="34.98" rx="4.45" transform="translate(-27.61 89.28) rotate(-7.52)" fill="#6c757d"/><rect x="656.37" y="237.21" width="18.23" height="34.98" rx="4.45" transform="translate(-27.61 89.28) rotate(-7.52)" fill="#fff" opacity="0.2" style="isolation:isolate"/><rect x="664.37" y="239.41" width="6.06" height="6.06" rx="1.77" transform="translate(-25.99 89.43) rotate(-7.52)" fill="#3f3d56"/><rect x="664.33" y="239.41" width="6.06" height="6.06" rx="1.77" transform="translate(-25.99 89.42) rotate(-7.52)" fill="#6c757d"/><path d="M666.87,241.4a.81.81,0,0,1-.71.91.82.82,0,0,1-.2-1.62A.85.85,0,0,1,666.87,241.4Z" fill="#fff" opacity="0.2" style="isolation:isolate"/><path d="M669.45,242.22a.82.82,0,0,1-1.62.22.84.84,0,0,1,.71-.93A.82.82,0,0,1,669.45,242.22Z" fill="#fff" opacity="0.2" style="isolation:isolate"/><path d="M667.1,243.85a.81.81,0,1,1-1.6.29.15.15,0,0,1,0-.07.79.79,0,0,1,.66-.91h0A.81.81,0,0,1,667.1,243.85Z" fill="#fff" opacity="0.2" style="isolation:isolate"/><path d="M681.89,276.14c-10,5.19-19.19-5.37-19.19-5.37l14.08-12.33,7.77,10.12Z" fill="#f9b499"/><path d="M676.78,258.44l-8.66,16.8-.47-.3a30.19,30.19,0,0,1-9.09-8.95h0a4.09,4.09,0,0,1-.5-4.64l2.56-4.67a4.11,4.11,0,0,1,4.89-1.93Z" fill="#f9b499"/><path d="M749,221.34c0,7.1-.1,14.16-.36,21.26-.21,5.38-.43,10.75-.83,16.14s-.78,10.8-1.46,16.29l-.22,2-.11,1-.25,1.73a17.75,17.75,0,0,1-1.37,4.33,13.21,13.21,0,0,1-4.44,5.33,12.11,12.11,0,0,1-7.08,2.24,137.2,137.2,0,0,1-49.35-10.79s3.38-13.61,2.83-14.49c2.54.43,25.1,5.85,40.74,6.92l-.21-3.93c0-1.73-1.92-45.69-1.92-45.69,0-5.94,7.1-13.11,13-13.18a10.86,10.86,0,0,1,11,10.7Z" fill="#0071f2"/><path d="M684.73,270h-.19A.14.14,0,0,1,684.73,270Z" fill="#407bff"/><g opacity="0.1"><path d="M749,221.34c0,7.1-.1,14.16-.36,21.26-.21,5.38-.43,10.75-.83,16.14s-.78,10.8-1.46,16.29l-.22,2-.11,1-.25,1.73a17.75,17.75,0,0,1-1.37,4.33,13.21,13.21,0,0,1-4.44,5.33,12.11,12.11,0,0,1-7.08,2.24,137.2,137.2,0,0,1-49.35-10.79s3.38-13.61,2.83-14.49c2.54.43,25.1,5.85,40.74,6.92l-.21-3.93c0-1.73-1.92-45.69-1.92-45.69,0-5.94,7.1-13.11,13-13.18a10.86,10.86,0,0,1,11,10.7Z" fill="#fff"/><path d="M684.73,270h-.19A.14.14,0,0,1,684.73,270Z" fill="#fff"/></g><polygon points="678.48 280.95 684.26 285.09 690.58 264.68 683.93 262.08 678.48 280.95" fill="#0071f2"/><polygon points="678.48 280.95 684.26 285.09 690.58 264.68 683.93 262.08 678.48 280.95" fill="#fff" opacity="0.5" style="isolation:isolate"/><path d="M726.84,154.29c2.32,0,8-3.69,0-8.14a39.56,39.56,0,0,0-4.33-1.62c2.09-5.2,0-14.7-8-14.27-2.23.12-3.62.85-3.55,2.56a17.3,17.3,0,0,0-3.46-7.22,10.29,10.29,0,0,0-8.66-3.22c-3.32.45-6.18,3.74-4.61,6a23.52,23.52,0,0,0-9.14-2.25c-3.24,0-6.68,1.73-6.79,4.29-.1,2.18,2.26,3.93,4.47,5.33-2.89.56-7.3,1.3-9.21,3.05a4.36,4.36,0,0,0-.92,6.1,1.56,1.56,0,0,0,.16.2c1.73,1.84,6.06,2,7.46,0-7.48,8.54,2,9.61,21.42,5.44a1.26,1.26,0,0,0-1,1.48,1.28,1.28,0,0,0,.38.69,5.51,5.51,0,0,0,2.92,1.05A112.17,112.17,0,0,0,726.84,154.29Z" fill="#6c757d"/><rect x="286.23" y="77.15" width="305.61" height="45.14" fill="#bcbec0"/><path d="M591.85,77.15H286.23V63.85A14.16,14.16,0,0,1,300.4,49.69H577.68a14.16,14.16,0,0,1,14.17,14.16Z" fill="#d1d3d4"/><path d="M306.91,63.63a4.25,4.25,0,1,1-4.25-4.24h0A4.24,4.24,0,0,1,306.91,63.63Z" fill="#fff"/><path d="M319.69,63.63a4.25,4.25,0,1,1-4.25-4.24h0A4.24,4.24,0,0,1,319.69,63.63Z" fill="#fff"/><path d="M332.31,63.63a4.25,4.25,0,1,1-4.24-4.24h0A4.24,4.24,0,0,1,332.31,63.63Z" fill="#fff"/><path d="M286.23,505.74H591.85V519a14.17,14.17,0,0,1-14.12,14.22H300.4a14.16,14.16,0,0,1-14.17-14.17Z" fill="#d1d3d4"/><rect x="286.23" y="122.31" width="305.61" height="383.43" fill="#d1d3d4"/><rect x="291.4" y="122.31" width="294.73" height="383.43" fill="#fff" style="isolation:isolate"/><rect x="580.56" y="489.29" width="11.29" height="15.48" opacity="0.1" style="isolation:isolate"/><rect x="352.91" y="513.79" width="30.49" height="11.93" fill="#fff"/><polygon points="349.24 516.02 344.76 520.01 349.24 523.49 349.24 516.02" fill="#fff"/><polygon points="340.53 516.02 336.07 520.01 340.53 523.49 340.53 516.02" fill="#fff"/><rect x="331.03" y="516.04" width="2.18" height="7.46" fill="#fff"/><polygon points="387.09 516.02 391.58 520.01 387.09 523.49 387.09 516.02" fill="#fff"/><polygon points="395.8 516.02 400.27 520.01 395.8 523.49 395.8 516.02" fill="#fff"/><rect x="403.14" y="516.03" width="2.18" height="7.46" fill="#fff"/><rect x="467.28" y="513.67" width="23.88" height="12.19" fill="#fff"/><rect x="493.39" y="513.67" width="7.97" height="12.19" fill="#fff"/><rect x="298.09" y="87.75" width="21.77" height="1.73" fill="#d1d3d4"/><rect x="341.59" y="87.75" width="21.77" height="1.73" fill="#d1d3d4"/><rect x="385.1" y="87.75" width="21.77" height="1.73" fill="#d1d3d4"/><rect x="428.6" y="87.75" width="21.77" height="1.73" fill="#d1d3d4"/><rect x="472.11" y="87.75" width="21.77" height="1.73" fill="#d1d3d4"/><rect x="515.63" y="87.75" width="21.77" height="1.73" fill="#d1d3d4"/><rect x="328.59" y="94.8" width="1.73" height="19.13" fill="#d1d3d4"/><rect x="387.49" y="94.8" width="1.73" height="19.13" fill="#d1d3d4"/><rect x="455.26" y="94.8" width="1.73" height="19.13" fill="#d1d3d4"/><rect x="498.28" y="94.8" width="1.73" height="19.13" fill="#d1d3d4"/><rect x="510.69" y="94.8" width="9.92" height="19.13" fill="#fff"/><rect x="522.86" y="94.8" width="9.92" height="9.56" fill="#fff"/><rect x="535" y="94.8" width="9.92" height="9.56" fill="#fff"/><rect x="556.51" y="102.69" width="19.72" height="11.24" fill="#fff"/><rect x="556.51" y="95.09" width="19.72" height="5.61" fill="#fff"/><polygon points="351.79 100.63 347.3 104.61 351.79 108.09 351.79 100.63" fill="#fff"/><polygon points="343.08 100.63 338.61 104.61 343.08 108.09 343.08 100.63" fill="#fff"/><rect x="333.57" y="100.63" width="2.18" height="7.46" fill="#fff"/><polygon points="365.47 100.63 369.93 104.61 365.47 108.09 365.47 100.63" fill="#fff"/><polygon points="374.16 100.63 378.64 104.61 374.16 108.09 374.16 100.63" fill="#fff"/><rect x="381.48" y="100.61" width="2.18" height="7.46" fill="#fff"/><path d="M409.08,103.9a6.42,6.42,0,1,1-6.44-6.4h0A6.42,6.42,0,0,1,409.08,103.9Z" fill="#fff"/><rect x="401.79" y="100.67" width="1.73" height="6.49" fill="#d1d3d4"/><rect x="399.42" y="103.04" width="6.49" height="1.73" fill="#d1d3d4"/><circle cx="417.43" cy="103.9" r="6.41" fill="#fff"/><rect x="414.19" y="103.04" width="6.49" height="1.73" fill="#d1d3d4"/><rect x="387.09" y="431.21" width="43.2" height="1.73" fill="#407bff"/><rect x="444.6" y="431.21" width="65.68" height="1.73" fill="#407bff"/><path d="M308,143.92h4.11v11.29H319v3.25H308Z" fill="#d1d3d4"/><path d="M319.69,152.82a6.37,6.37,0,1,1,6.88,5.81l-.53,0a5.9,5.9,0,0,1-6.34-5.41C319.69,153.11,319.69,153,319.69,152.82Zm8.65,0a2.39,2.39,0,1,0-4.74-.57,2.72,2.72,0,0,0,0,.57,2.39,2.39,0,1,0,4.74.57A1.82,1.82,0,0,0,328.34,152.82Z" fill="#d1d3d4"/><path d="M341.83,147.11v3.46H341a2.44,2.44,0,0,0-2.71,2.14,2.22,2.22,0,0,0,0,.63v5.19H334.3V147.28h3.76v1.35A4.56,4.56,0,0,1,341.83,147.11Z" fill="#d1d3d4"/><path d="M354.8,153.84h-8.19a2.59,2.59,0,0,0,2.77,1.73,3.68,3.68,0,0,0,2.6-1l2.08,2.15a6.12,6.12,0,0,1-4.8,1.84c-4,0-6.61-2.48-6.61-5.84a5.8,5.8,0,0,1,5.82-5.81h.37a5.64,5.64,0,0,1,6,5.27,3.62,3.62,0,0,1,0,.57C354.85,153.15,354.82,153.53,354.8,153.84Zm-8.24-2.08h4.6a2.33,2.33,0,0,0-4.6,0Z" fill="#d1d3d4"/><path d="M375.91,152v6.44h-4v-5.8c0-1.61-.66-2.3-1.73-2.3s-2,.78-2,2.51v5.59h-3.94v-5.8c0-1.61-.64-2.3-1.73-2.3s-2,.78-2,2.51v5.59h-3.94V147.21h3.75v1.18a4.56,4.56,0,0,1,3.47-1.37,4.15,4.15,0,0,1,3.63,1.73,4.83,4.83,0,0,1,3.9-1.73C374,147.11,375.91,148.54,375.91,152Z" fill="#d1d3d4"/><path d="M384.63,143.92h4.13v14.54h-4.13Z" fill="#d1d3d4"/><path d="M404.1,152.84a5.46,5.46,0,0,1-5.08,5.8l-.45,0a4.2,4.2,0,0,1-3.13-1.2v5h-3.95V147.21h3.76v1.13a4,4,0,0,1,3.32-1.32,5.45,5.45,0,0,1,5.54,5.37C404.11,152.54,404.11,152.69,404.1,152.84Zm-4,0a2.37,2.37,0,1,0,0,.26A2.11,2.11,0,0,0,400.11,152.84Z" fill="#d1d3d4"/><path d="M405.05,157.49l1.18-2.7a8,8,0,0,0,3.93,1c1.33,0,1.73-.29,1.73-.78,0-1.5-6.65.21-6.65-4.29,0-2.11,2-3.74,5.49-3.74a9.82,9.82,0,0,1,4.43.95L414,150.66a6.65,6.65,0,0,0-3.23-.84c-1.34,0-1.82.39-1.82.8,0,1.56,6.63-.12,6.63,4.33,0,2.08-1.9,3.71-5.56,3.71A10.4,10.4,0,0,1,405.05,157.49Z" fill="#d1d3d4"/><path d="M429.14,147.21v11.25h-3.83v-1.19a4.52,4.52,0,0,1-3.34,1.39c-2.76,0-4.78-1.58-4.78-5.2v-6.28h3.95v5.64c0,1.73.69,2.44,1.87,2.44s2.11-.78,2.11-2.67v-5.41Z" fill="#d1d3d4"/><path d="M450.9,152v6.44H447v-5.8c0-1.61-.67-2.3-1.73-2.3s-2,.78-2,2.51v5.59H439.3v-5.8c0-1.61-.64-2.3-1.73-2.3s-2,.78-2,2.51v5.59h-3.95V147.21h3.76v1.18a4.5,4.5,0,0,1,3.36-1.37,4.12,4.12,0,0,1,3.63,1.73,4.86,4.86,0,0,1,3.91-1.73C449,147.11,450.9,148.54,450.9,152Z" fill="#d1d3d4"/><path d="M307.88,397.92h2.73v7.53h4.63v2.16h-7.36Z" fill="#d1d3d4"/><path d="M315.7,403.86a4.25,4.25,0,1,1,4.59,3.86l-.36,0a3.91,3.91,0,0,1-4.21-3.59C315.71,404.05,315.7,404,315.7,403.86Zm5.82,0a1.55,1.55,0,1,0,0,.14C321.53,404,321.52,403.9,321.52,403.86Z" fill="#d1d3d4"/><path d="M330.42,399.91v2.37h-.59a1.63,1.63,0,0,0-1.74,1.5,1.36,1.36,0,0,0,0,.35v3.47h-2.7v-7.5h2.49v.9A3.07,3.07,0,0,1,330.42,399.91Z" fill="#d1d3d4"/><path d="M339.06,404.53h-5.52a1.73,1.73,0,0,0,1.83,1.2,2.43,2.43,0,0,0,1.73-.64l1.39,1.43a4.05,4.05,0,0,1-3.19,1.22,4,4,0,0,1-4.39-3.49c0-.13,0-.26,0-.39a3.87,3.87,0,0,1,3.79-4,3,3,0,0,1,.42,0,3.75,3.75,0,0,1,4,3.48,2.8,2.8,0,0,1,0,.41C339.11,404.06,339.08,404.32,339.06,404.53Zm-5.49-1.38h3.07a1.56,1.56,0,0,0-3.07,0Z" fill="#d1d3d4"/><path d="M353.14,403.37v4.3h-2.63V403.8c0-1.07-.45-1.54-1.15-1.54s-1.31.52-1.31,1.74v3.72h-2.63v-3.86c0-1.08-.42-1.54-1.13-1.54s-1.33.52-1.33,1.73v3.72h-2.63v-7.5h2.51v.78a3,3,0,0,1,2.23-.92,2.73,2.73,0,0,1,2.42,1.18,3.33,3.33,0,0,1,2.62-1.18C351.84,399.91,353.14,401,353.14,403.37Z" fill="#d1d3d4"/><path d="M359,397.92h2.73v9.69H359Z" fill="#d1d3d4"/><path d="M371.93,403.86a3.65,3.65,0,0,1-3.39,3.87h-.29a2.84,2.84,0,0,1-2.09-.78v3.34h-2.63V400.12H366v.74a2.68,2.68,0,0,1,2.21-.88,3.63,3.63,0,0,1,3.68,3.59Zm-2.65,0a1.67,1.67,0,1,0,0,.12Z" fill="#d1d3d4"/><path d="M372.57,407l.78-1.74a5.32,5.32,0,0,0,2.61.68c.9,0,1.18-.19,1.18-.5,0-1-4.42.14-4.42-2.88,0-1.4,1.3-2.49,3.66-2.49a6.61,6.61,0,0,1,3,.64l-.8,1.73a4.31,4.31,0,0,0-2.16-.55c-.89,0-1.2.26-1.2.53,0,1,4.42-.08,4.42,2.9,0,1.38-1.29,2.46-3.71,2.46A6.72,6.72,0,0,1,372.57,407Z" fill="#d1d3d4"/><path d="M388.62,400.12v7.49h-2.5v-.78a2.94,2.94,0,0,1-2.23.92,3,3,0,0,1-3.19-3.46V400.1h2.64v3.76c0,1.16.45,1.62,1.24,1.62S386,405,386,403.75v-3.6Z" fill="#d1d3d4"/><path d="M403.13,403.37v4.3H400.5V403.8c0-1.07-.45-1.54-1.15-1.54S398,402.78,398,404v3.72h-2.62v-3.86c0-1.08-.43-1.54-1.14-1.54s-1.33.52-1.33,1.73v3.72h-2.64v-7.5h2.52v.78a3,3,0,0,1,2.25-.92,2.75,2.75,0,0,1,2.4,1.18,3.33,3.33,0,0,1,2.62-1.18C401.85,399.91,403.13,401,403.13,403.37Z" fill="#d1d3d4"/><path d="M409,397.92h4.58c3.21,0,5.42,1.87,5.42,4.85s-2.21,4.84-5.42,4.84H409Zm4.46,7.51a2.66,2.66,0,1,0,.43-5.31h-2.16v5.31Z" fill="#d1d3d4"/><path d="M419.8,403.86a4.25,4.25,0,1,1,4.59,3.86l-.36,0a3.93,3.93,0,0,1-4.22-3.59C419.81,404.05,419.8,404,419.8,403.86Zm5.8,0a1.59,1.59,0,1,0-3.17.27,1.6,1.6,0,0,0,1.6,1.46,1.57,1.57,0,0,0,1.58-1.57.86.86,0,0,0,0-.16Z" fill="#d1d3d4"/><path d="M429.5,397.35h2.61v10.26H429.5Z" fill="#d1d3d4"/><path d="M433.36,403.86a4.24,4.24,0,1,1,4.59,3.86l-.36,0a3.92,3.92,0,0,1-4.22-3.59C433.36,404.05,433.36,404,433.36,403.86Zm5.82,0a1.84,1.84,0,1,0,0,.12s0-.08,0-.12Z" fill="#d1d3d4"/><path d="M448.08,399.91v2.37h-.59a1.62,1.62,0,0,0-1.74,1.5,1.36,1.36,0,0,0,0,.35v3.47h-2.63v-7.5h2.51v.9A3,3,0,0,1,448.08,399.91Z" fill="#d1d3d4"/><rect x="334.77" y="431.21" width="41.63" height="1.73" fill="#d1d3d4"/><rect x="308.97" y="445.33" width="52.33" height="1.73" fill="#d1d3d4"/><rect x="379.96" y="445.33" width="121.38" height="1.73" fill="#d1d3d4"/><rect x="517.44" y="445.33" width="42.25" height="1.73" fill="#d1d3d4"/><rect x="308.26" y="460.6" width="133" height="1.73" fill="#d1d3d4"/><rect x="462.02" y="460.6" width="43.46" height="1.73" fill="#d1d3d4"/><rect x="308.36" y="477.6" width="34.53" height="1.73" fill="#d1d3d4"/><rect x="520.61" y="460.6" width="35.89" height="1.73" fill="#d1d3d4"/><rect x="332.31" y="181.79" width="21.77" height="1.73" fill="#d1d3d4"/><rect x="364.77" y="181.79" width="47.18" height="1.73" fill="#d1d3d4"/><rect x="424.6" y="181.79" width="68.55" height="1.73" fill="#d1d3d4"/><rect x="505.48" y="181.79" width="54.21" height="1.73" fill="#407bff"/><rect x="309.73" y="200.61" width="72.81" height="1.73" fill="#d1d3d4"/><rect x="399.16" y="200.61" width="55.72" height="1.73" fill="#d1d3d4"/><rect x="466.4" y="200.61" width="66.18" height="1.73" fill="#d1d3d4"/><rect x="543.35" y="200.61" width="16.35" height="1.73" fill="#407bff"/><rect x="315.62" y="219.43" width="31.81" height="1.73" fill="#407bff"/><rect x="357.99" y="219.43" width="61.11" height="1.73" fill="#407bff"/><rect x="430.3" y="219.43" width="62.85" height="1.73" fill="#407bff"/><rect x="508.94" y="219.43" width="50.75" height="1.73" fill="#d1d3d4"/><rect x="309.73" y="238.27" width="72.81" height="1.73" fill="#d1d3d4"/><rect x="396.25" y="238.27" width="58.63" height="1.73" fill="#d1d3d4"/><rect x="466.4" y="238.27" width="66.18" height="1.73" fill="#d1d3d4"/><rect x="543.35" y="238.27" width="16.35" height="1.73" fill="#407bff"/><rect x="309.73" y="332.4" width="38.39" height="1.73" fill="#d1d3d4"/><rect x="361.99" y="332.4" width="62.59" height="1.73" fill="#d1d3d4"/><rect x="436.98" y="332.4" width="59.56" height="1.73" fill="#d1d3d4"/><rect x="508.94" y="332.4" width="50.75" height="1.73" fill="#d1d3d4"/><rect x="309.73" y="351.22" width="75.11" height="1.73" fill="#d1d3d4"/><rect x="399.16" y="351.22" width="59.7" height="1.73" fill="#d1d3d4"/><rect x="471.54" y="351.22" width="88.15" height="1.73" fill="#d1d3d4"/><rect x="309.73" y="370.04" width="12.16" height="1.73" fill="#d1d3d4"/><rect x="333.64" y="370.04" width="78.32" height="1.73" fill="#d1d3d4"/><rect x="422.19" y="370.04" width="23.81" height="1.73" fill="#d1d3d4"/><rect x="332.31" y="257.09" width="21.77" height="1.73" fill="#d1d3d4"/><rect x="364.77" y="257.09" width="47.18" height="1.73" fill="#d1d3d4"/><rect x="424.6" y="257.09" width="68.55" height="1.73" fill="#d1d3d4"/><rect x="505.48" y="257.09" width="54.21" height="1.73" fill="#d1d3d4"/><rect x="309.73" y="275.91" width="72.81" height="1.73" fill="#d1d3d4"/><rect x="399.16" y="275.91" width="55.72" height="1.73" fill="#407bff"/><rect x="466.4" y="275.91" width="66.18" height="1.73" fill="#407bff"/><rect x="543.35" y="275.91" width="16.35" height="1.73" fill="#407bff"/><rect x="309.73" y="294.74" width="29.38" height="1.73" fill="#d1d3d4"/><rect x="357.99" y="294.74" width="61.11" height="1.73" fill="#d1d3d4"/><rect x="430.3" y="294.74" width="62.85" height="1.73" fill="#d1d3d4"/><rect x="508.94" y="294.74" width="50.75" height="1.73" fill="#d1d3d4"/><rect x="309.73" y="313.56" width="72.81" height="1.73" fill="#d1d3d4"/><rect x="396.25" y="313.56" width="58.63" height="1.73" fill="#d1d3d4"/><rect x="466.4" y="313.56" width="66.18" height="1.73" fill="#d1d3d4"/><rect x="543.35" y="313.56" width="16.35" height="1.73" fill="#d1d3d4"/><rect x="523.3" y="431.21" width="31.55" height="1.73" fill="#d1d3d4"/><rect x="392.83" y="268.95" width="174.17" height="15.15" fill="#bcbec0"/><rect x="399.21" y="275.93" width="55.72" height="1.73" fill="#d1d3d4"/><rect x="466.45" y="275.93" width="66.18" height="1.73" fill="#d1d3d4"/><rect x="543.4" y="275.93" width="16.35" height="1.73" fill="#d1d3d4"/><path d="M556.25,272.38a4.73,4.73,0,0,1-4.73-4.73h0V256h-8.31a6.1,6.1,0,0,1-6.08-6.08v-23.7a6.07,6.07,0,0,1,6.06-6h86.13a6.06,6.06,0,0,1,6.06,6.06v23.68A6.1,6.1,0,0,1,629.3,256H573l-13.94,15.43A4.71,4.71,0,0,1,556.25,272.38Z" fill="#fff"/><path d="M556.25,273.25a5.6,5.6,0,0,1-5.6-5.6h0V256.87h-7.44a6.93,6.93,0,0,1-6.93-6.93V226.22a6.93,6.93,0,0,1,6.93-6.93h86.12a6.93,6.93,0,0,1,6.93,6.93v23.69a6.92,6.92,0,0,1-6.93,6.92H573.41L559.73,272A5.68,5.68,0,0,1,556.25,273.25Zm-13-52.21a5.2,5.2,0,0,0-5.2,5.2v23.7a5.2,5.2,0,0,0,5.2,5.2h9.18v12.51a3.86,3.86,0,0,0,3.86,3.87h0a3.89,3.89,0,0,0,2.3-.78l14.09-15.59H629.3a5.19,5.19,0,0,0,5.19-5.19V226.24a5.19,5.19,0,0,0-5.19-5.2Z" fill="#d1d3d4"/><path d="M550.76,240.92h-3.47l-.65,1.59h-2.38l3.64-8.2h2.29l3.63,8.2H551.4Zm-.68-1.73L549,236.56,548,239.19Z" fill="#d1d3d4"/><path d="M562.31,234.31v8.2h-1.94l-3.62-4.38v4.38h-2.27v-8.2h1.92l3.62,4.38v-4.38Z" fill="#d1d3d4"/><path d="M571.76,234.31v8.2h-1.9l-3.62-4.38v4.38H564v-8.2h1.92l3.62,4.38v-4.38Z" fill="#d1d3d4"/><path d="M573,238.41a4.59,4.59,0,1,1,4.89,4.27h-.32a4.31,4.31,0,0,1-4.56-4.05A1.77,1.77,0,0,1,573,238.41Zm6.79,0a2.26,2.26,0,1,0,0,.16v-.16Z" fill="#d1d3d4"/><path d="M585,236.14h-2.53v-1.83h7.34v1.83h-2.51v6.37H585Z" fill="#d1d3d4"/><path d="M595.79,240.92h-3.46l-.64,1.59h-2.37l3.62-8.2h2.28l3.64,8.2h-2.41Zm-.69-1.73-1.05-2.63L593,239.19Z" fill="#d1d3d4"/><path d="M600.85,236.14h-2.53v-1.83h7.36v1.83h-2.51v6.37h-2.32Z" fill="#d1d3d4"/><path d="M606.56,234.31h2.29v8.2h-2.32Z" fill="#d1d3d4"/><path d="M610.11,238.41a4.57,4.57,0,1,1,4.86,4.27h-.28a4.32,4.32,0,0,1-4.57-4.05C610.12,238.56,610.11,238.49,610.11,238.41Zm6.79,0a2.13,2.13,0,1,0,0,.16.86.86,0,0,0,0-.16Z" fill="#d1d3d4"/><path d="M628.3,234.31v8.2h-1.93l-3.67-4.38v4.38h-2.28v-8.2h1.92l3.62,4.38v-4.38Z" fill="#d1d3d4"/><path d="M482.21,419.82a4.74,4.74,0,0,1-4.73-4.74V403.37h-8.31a6.08,6.08,0,0,1-6.08-6.08h0V373.64a6.08,6.08,0,0,1,6.06-6h86.13a6.06,6.06,0,0,1,6.06,6.06v23.69a6.08,6.08,0,0,1-6.08,6.07H499l-13.93,15.43A4.73,4.73,0,0,1,482.21,419.82Z" fill="#fff"/><path d="M482.21,420.69a5.63,5.63,0,0,1-5.61-5.61V404.29h-7.43a6.93,6.93,0,0,1-6.93-6.93V373.64a6.92,6.92,0,0,1,6.93-6.92h86.12a6.92,6.92,0,0,1,6.93,6.92v23.69a6.92,6.92,0,0,1-6.93,6.92H499.37l-13.68,15.16A5.75,5.75,0,0,1,482.21,420.69Zm-13-52.23a5.2,5.2,0,0,0-5.2,5.2v23.7a5.2,5.2,0,0,0,5.2,5.2h9.16v12.52a3.88,3.88,0,0,0,3.88,3.88,3.72,3.72,0,0,0,2.3-.8l14.09-15.58h56.66a5.19,5.19,0,0,0,5.19-5.2V373.66a5.19,5.19,0,0,0-5.19-5.2Z" fill="#d1d3d4"/><path d="M476,388.34h-3.46l-.66,1.6h-2.37l3.64-8.21h2.35l3.64,8.21h-2.43Zm-.67-1.73L474.29,384l-1.05,2.63Z" fill="#d1d3d4"/><path d="M487.64,381.73v8.21h-1.92l-3.62-4.37v4.37h-2.28v-8.21h1.92l3.62,4.38v-4.38Z" fill="#d1d3d4"/><path d="M497,381.73v8.21h-1.91l-3.62-4.37v4.37h-2.28v-8.21h1.89l3.62,4.38v-4.38Z" fill="#d1d3d4"/><path d="M498.26,385.83a4.57,4.57,0,1,1,4.85,4.27h-.28a4.31,4.31,0,0,1-4.56-4.05A1.69,1.69,0,0,1,498.26,385.83Zm6.79,0a2.22,2.22,0,1,0-2.22,2.36,2.19,2.19,0,0,0,2.22-2.14v-.22Z" fill="#d1d3d4"/><path d="M510.26,383.56h-2.53v-1.83h7.36v1.83h-2.51v6.38h-2.32Z" fill="#d1d3d4"/><path d="M521.06,388.34H517.6l-.64,1.6h-2.37l3.61-8.21h2.34l3.64,8.21h-2.41Zm-.69-1.73L519.31,384l-1,2.63Z" fill="#d1d3d4"/><path d="M526.12,383.56h-2.53v-1.83h7.34v1.83h-2.51v6.38H526.1Z" fill="#d1d3d4"/><path d="M531.83,381.73h2.32v8.21h-2.32Z" fill="#d1d3d4"/><path d="M535.38,385.83a4.57,4.57,0,1,1,4.86,4.27H540a4.32,4.32,0,0,1-4.56-4.05A1.69,1.69,0,0,1,535.38,385.83Zm6.79,0a2.15,2.15,0,1,0,0,.22,1.55,1.55,0,0,0,0-.22Z" fill="#d1d3d4"/><path d="M553.56,381.73v8.21h-1.85l-3.62-4.37v4.37h-2.28v-8.21h1.92l3.62,4.38v-4.38Z" fill="#d1d3d4"/><rect x="382.26" y="424.51" width="133.41" height="15.15" fill="#bcbec0"/><rect x="387.15" y="431.21" width="43.2" height="1.73" fill="#d1d3d4"/><rect x="444.65" y="431.21" width="65.68" height="1.73" fill="#d1d3d4"/><rect x="308.41" y="212.49" width="190.8" height="15.15" fill="#bcbec0"/><path d="M497.93,219.92a4.75,4.75,0,0,1-4.75-4.75V203.52h-8.29a6.08,6.08,0,0,1-6.08-6.08h0v-23.7a6.09,6.09,0,0,1,6.06-6.05H571a6.06,6.06,0,0,1,6.06,6.06v23.69a6.08,6.08,0,0,1-6.08,6.08H514.71L500.77,219A4.77,4.77,0,0,1,497.93,219.92Z" fill="#fff"/><path d="M497.93,220.78a5.61,5.61,0,0,1-5.61-5.61V204.38h-7.43a6.93,6.93,0,0,1-6.93-6.92V173.74a6.93,6.93,0,0,1,6.93-6.93H571a6.92,6.92,0,0,1,6.92,6.93v23.68a6.92,6.92,0,0,1-6.92,6.93H515.09L501.41,219.5A5.75,5.75,0,0,1,497.93,220.78Zm-13-52.22a5.19,5.19,0,0,0-5.19,5.19v23.71a5.19,5.19,0,0,0,5.19,5.19h9.16v12.52a3.9,3.9,0,0,0,3.88,3.88,3.7,3.7,0,0,0,2.3-.8l14.1-15.58H571a5.2,5.2,0,0,0,5.2-5.19V173.75a5.2,5.2,0,0,0-5.2-5.19Z" fill="#d1d3d4"/><path d="M492.09,188.44h-3.46L488,190H485.6l3.64-8.21h2.28l3.64,8.21h-2.43Zm-.67-1.73-1.06-2.64-1.05,2.64Z" fill="#d1d3d4"/><path d="M503.64,181.82V190h-1.92L498,185.67V190h-2.28v-8.21h1.92l3.62,4.38v-4.38Z" fill="#d1d3d4"/><path d="M513.1,181.82V190h-1.91l-3.63-4.36V190h-2.27v-8.21h1.9l3.64,4.38v-4.38Z" fill="#d1d3d4"/><path d="M514.33,185.93a4.57,4.57,0,1,1,4.85,4.26h-.28a4.31,4.31,0,0,1-4.57-4Zm6.78,0a2.21,2.21,0,1,0-2.21,2.35,2.18,2.18,0,0,0,2.22-2.14,1.48,1.48,0,0,0,0-.21Z" fill="#d1d3d4"/><path d="M526.33,183.66H523.8v-1.84h7.36v1.84h-2.51V190h-2.32Z" fill="#d1d3d4"/><path d="M537.11,188.44h-3.46L533,190h-2.37l3.62-8.21h2.28l3.64,8.21h-2.32Zm-.67-1.73-1.06-2.64-1,2.64Z" fill="#d1d3d4"/><path d="M542.19,183.66h-2.6v-1.84H547v1.84h-2.51V190h-2.25Z" fill="#d1d3d4"/><path d="M547.9,181.82h2.32V190H547.9Z" fill="#d1d3d4"/><path d="M551.45,185.93a4.57,4.57,0,1,1,4.86,4.26H556a4.29,4.29,0,0,1-4.56-4A1.85,1.85,0,0,1,551.45,185.93Zm6.79,0a2.22,2.22,0,1,0-2.22,2.35,2.17,2.17,0,0,0,2.22-2.14,1.47,1.47,0,0,0,0-.21Z" fill="#d1d3d4"/><path d="M569.63,181.82V190h-1.92l-3.62-4.36V190H561.8v-8.21h1.93l3.62,4.38v-4.38Z" fill="#d1d3d4"/><rect x="315.65" y="219.45" width="31.81" height="1.73" fill="#d1d3d4"/><rect x="358.04" y="219.45" width="61.11" height="1.73" fill="#d1d3d4"/><rect x="430.35" y="219.45" width="62.85" height="1.73" fill="#d1d3d4"/></svg>